<svg xmlns="http://www.w3.org/2000/svg" width="383" height="785" fill="none" id="svg-1102053888_14916"><g clip-path="url(#svg-1102053888_14916_a)"><path d="M383 345a2 2 0 0 1-2 2h-3v-99h3a2 2 0 0 1 2 2v95Z" fill="#F0ECE3"></path><path opacity=".76" d="M383 345a2 2 0 0 1-2 2h-3v-99h3a2 2 0 0 1 2 2v95Z" fill="url(#svg-1102053888_14916_b)"></path><path d="M383 345a2 2 0 0 1-2 2h-3v-99h3a2 2 0 0 1 2 2v95Z" fill="url(#svg-1102053888_14916_c)"></path><path opacity=".48" d="M383 345a2 2 0 0 1-2 2h-3v-99h3a2 2 0 0 1 2 2v95Z" fill="url(#svg-1102053888_14916_d)"></path><g filter="url(#svg-1102053888_14916_e)"><path d="M382 268.5a.5.5 0 0 1-1 0V250h1v18.5Z" fill="#fff"></path></g><g filter="url(#svg-1102053888_14916_f)"><path d="M382 341h-1v-90.5a.5.5 0 0 1 1 0V341Z" fill="#fff" fill-opacity=".8"></path></g><g filter="url(#svg-1102053888_14916_g)"><path d="M383 343h-1v-94.5a.5.5 0 0 1 1 0V343Z" fill="#61605D"></path></g></g><g clip-path="url(#svg-1102053888_14916_h)"><path d="M0 151a2 2 0 0 1 2-2h3v31H2a2 2 0 0 1-2-2v-27Z" fill="#F0ECE3"></path><path opacity=".76" d="M0 151a2 2 0 0 1 2-2h3v31H2a2 2 0 0 1-2-2v-27Z" fill="url(#svg-1102053888_14916_i)"></path><path d="M0 151a2 2 0 0 1 2-2h3v31H2a2 2 0 0 1-2-2v-27Z" fill="url(#svg-1102053888_14916_j)"></path><path opacity=".48" d="M0 151a2 2 0 0 1 2-2h3v31H2a2 2 0 0 1-2-2v-27Z" fill="url(#svg-1102053888_14916_k)"></path><g filter="url(#svg-1102053888_14916_l)"><path d="M1 150.5a.5.5 0 0 1 1 0v5.5H1v-5.5Z" fill="#fff"></path></g><g filter="url(#svg-1102053888_14916_m)"><path d="M1 152h1v25.5a.5.5 0 0 1-1 0V152Z" fill="#fff" fill-opacity=".8"></path></g><g filter="url(#svg-1102053888_14916_n)"><path d="M0 148h1v33.5a.5.5 0 0 1-1 0V148Z" fill="#61605D"></path></g></g><g clip-path="url(#svg-1102053888_14916_o)"><path d="M0 211a2 2 0 0 1 2-2h3v56H2a2 2 0 0 1-2-2v-52Z" fill="#F0ECE3"></path><path opacity=".76" d="M0 211a2 2 0 0 1 2-2h3v56H2a2 2 0 0 1-2-2v-52Z" fill="url(#svg-1102053888_14916_p)"></path><path d="M0 211a2 2 0 0 1 2-2h3v56H2a2 2 0 0 1-2-2v-52Z" fill="url(#svg-1102053888_14916_q)"></path><path opacity=".48" d="M0 211a2 2 0 0 1 2-2h3v56H2a2 2 0 0 1-2-2v-52Z" fill="url(#svg-1102053888_14916_r)"></path><g filter="url(#svg-1102053888_14916_s)"><path d="M1 211.5a.5.5 0 0 1 1 0V222H1v-10.5Z" fill="#fff"></path></g><g filter="url(#svg-1102053888_14916_t)"><path d="M1 212h1v51.5a.5.5 0 0 1-1 0V212Z" fill="#fff" fill-opacity=".8"></path></g><g filter="url(#svg-1102053888_14916_u)"><path d="M0 209h1v57.5a.5.5 0 0 1-1 0V209Z" fill="#61605D"></path></g></g><g clip-path="url(#svg-1102053888_14916_v)"><path d="M0 284a2 2 0 0 1 2-2h3v56H2a2 2 0 0 1-2-2v-52Z" fill="#F0ECE3"></path><path opacity=".76" d="M0 284a2 2 0 0 1 2-2h3v56H2a2 2 0 0 1-2-2v-52Z" fill="url(#svg-1102053888_14916_w)"></path><path d="M0 284a2 2 0 0 1 2-2h3v56H2a2 2 0 0 1-2-2v-52Z" fill="url(#svg-1102053888_14916_x)"></path><path opacity=".48" d="M0 284a2 2 0 0 1 2-2h3v56H2a2 2 0 0 1-2-2v-52Z" fill="url(#svg-1102053888_14916_y)"></path><g filter="url(#svg-1102053888_14916_z)"><path d="M1 284.5a.5.5 0 0 1 1 0V295H1v-10.5Z" fill="#fff"></path></g><g filter="url(#svg-1102053888_14916_A)"><path d="M1 285h1v51.5a.5.5 0 0 1-1 0V285Z" fill="#fff" fill-opacity=".8"></path></g><g filter="url(#svg-1102053888_14916_B)"><path d="M0 282h1v57.5a.5.5 0 0 1-1 0V282Z" fill="#61605D"></path></g></g><g clip-path="url(#svg-1102053888_14916_C)"><rect x="3" width="377" height="785" rx="62" fill="#E7E3BF"></rect><g filter="url(#svg-1102053888_14916_D)"><rect x="4.5" y="1.5" width="374" height="782" rx="60.5" stroke="#C3C3C3" stroke-width="3"></rect></g><g filter="url(#svg-1102053888_14916_E)"><rect x="3.5" y=".5" width="376" height="784" rx="61.5" stroke="#524B40"></rect></g><g filter="url(#svg-1102053888_14916_F)"><rect x="8.5" y="5.5" width="367" height="775" rx="57.5" stroke="#fff"></rect></g><rect x="6.8" y="3.8" width="369.4" height="777.4" rx="58.2" stroke="#fff" stroke-width=".4"></rect><path fill="url(#svg-1102053888_14916_G)" d="M296 0h6v4h-6z"></path><path transform="rotate(-90 3 87)" fill="url(#svg-1102053888_14916_H)" d="M3 87h6v4H3z"></path><path fill="url(#svg-1102053888_14916_I)" d="M3 698h4v6H3z"></path><path fill="url(#svg-1102053888_14916_J)" d="M66 781h5v4h-5z"></path><path fill="url(#svg-1102053888_14916_K)" d="M376 698h4v6h-4z"></path></g><g clip-path="url(#svg-1102053888_14916_L)"><rect x="7" y="4" width="369" height="777" rx="58" fill="#000100"></rect><g filter="url(#svg-1102053888_14916_M)"><rect x="9" y="6" width="365" height="773" rx="56" stroke="url(#svg-1102053888_14916_N)" stroke-width="4"></rect></g></g><g clip-path="url(#svg-1102053888_14916_O)"><rect x="15" y="12" width="353" height="761" rx="52" fill="#3A3A3A"></rect><path fill="#fff" d="M15 12h353v761H15z"></path></g><rect x="136" y="24" width="110" height="31" rx="15.5" fill="#030303"></rect><circle cx="229.62" cy="39.62" r="9.62" fill="#0E0B0F"></circle><circle cx="229.62" cy="39.62" r="5.345" fill="#161424"></circle><circle cx="229.62" cy="39.62" r="3.207" fill="#0F0F2A"></circle><circle cx="229.62" cy="38.551" r="1.069" fill="#393752"></circle><path opacity=".35" d="M324 33.527h17A3.473 3.473 0 0 1 344.473 37v5A3.473 3.473 0 0 1 341 45.473h-17A3.473 3.473 0 0 1 320.527 42v-5A3.473 3.473 0 0 1 324 33.527Z" stroke="#000" stroke-width="1.055"></path><path opacity=".4" d="M346 38v4.22a2.29 2.29 0 0 0 0-4.22" fill="#000"></path><path d="M322 37a2 2 0 0 1 2-2h17a2 2 0 0 1 2 2v5a2 2 0 0 1-2 2h-17a2 2 0 0 1-2-2v-5Zm-18.885 5.085a3.75 3.75 0 0 1 4.919 0 .36.36 0 0 1 .115.258.358.358 0 0 1-.104.261l-2.224 2.29a.342.342 0 0 1-.493 0l-2.224-2.29a.363.363 0 0 1 .011-.52Zm-3.006-2.824a7.852 7.852 0 0 1 10.856 0 .37.37 0 0 1 .005.522l-1.285 1.325a.341.341 0 0 1-.483.007 5.4 5.4 0 0 0-3.666-1.443c-1.354 0-2.66.515-3.664 1.443a.34.34 0 0 1-.482-.007l-1.286-1.325a.372.372 0 0 1 .005-.522Zm-3.002-2.819a11.953 11.953 0 0 1 16.786 0 .373.373 0 0 1 .003.519l-1.287 1.325a.338.338 0 0 1-.482.004 9.515 9.515 0 0 0-6.627-2.702 9.515 9.515 0 0 0-6.627 2.702.337.337 0 0 1-.482-.004l-1.287-1.325a.373.373 0 0 1 .003-.519ZM282 36a1 1 0 0 1 1-1h1a1 1 0 0 1 1 1v8a1 1 0 0 1-1 1h-1a1 1 0 0 1-1-1v-8Zm5-2a1 1 0 0 1 1-1h1a1 1 0 0 1 1 1v10a1 1 0 0 1-1 1h-1a1 1 0 0 1-1-1V34Zm-10 5.5a1 1 0 0 1 1-1h1a1 1 0 0 1 1 1V44a1 1 0 0 1-1 1h-1a1 1 0 0 1-1-1v-4.5Zm-5 2.5a1 1 0 0 1 1-1h1a1 1 0 0 1 1 1v2a1 1 0 0 1-1 1h-1a1 1 0 0 1-1-1v-2ZM60.875 46.29c-2.191 0-3.86-1.294-4.217-3.262h2.134c.274.905 1.07 1.47 2.1 1.47 1.751 0 2.789-1.636 2.789-4.375h-.141c-.565 1.137-1.702 1.793-3.105 1.793-2.282 0-3.943-1.677-3.943-3.984 0-2.457 1.843-4.209 4.45-4.209 1.751 0 3.137.83 3.943 2.366.556.988.846 2.266.846 3.785 0 4.034-1.81 6.416-4.856 6.416Zm.075-6.076c1.37 0 2.374-.98 2.374-2.316 0-1.353-1.03-2.39-2.366-2.39s-2.365 1.02-2.365 2.357c0 1.37.98 2.35 2.357 2.35Zm7.742 4.516c-.78 0-1.329-.564-1.329-1.311 0-.756.548-1.312 1.329-1.312.788 0 1.328.556 1.328 1.312 0 .747-.54 1.311-1.328 1.311Zm0-6.226c-.78 0-1.329-.556-1.329-1.303 0-.755.548-1.311 1.329-1.311.788 0 1.328.556 1.328 1.311 0 .747-.54 1.303-1.328 1.303ZM77.496 46v-2.233h-5.852v-1.91c1.079-1.983 2.764-4.648 4.88-7.835h3.022v7.936h1.618v1.81h-1.618V46h-2.05Zm-3.869-4.117v.124h3.902v-6.242h-.117a90.258 90.258 0 0 0-3.785 6.118ZM85.27 46v-9.82h-.14l-2.98 2.092v-2.059l3.128-2.191h2.134V46H85.27Z" fill="#000"></path><defs><linearGradient id="svg-1102053888_14916_b" x1="380.5" y1="347" x2="380.5" y2="342.5" gradientUnits="userSpaceOnUse"><stop></stop><stop offset="1" stop-opacity="0"></stop></linearGradient><linearGradient id="svg-1102053888_14916_c" x1="378" y1="347" x2="381.5" y2="347" gradientUnits="userSpaceOnUse"><stop></stop><stop offset="1" stop-color="#AEAEAE" stop-opacity="0"></stop></linearGradient><linearGradient id="svg-1102053888_14916_d" x1="380.5" y1="252.5" x2="380.5" y2="248" gradientUnits="userSpaceOnUse"><stop stop-opacity="0"></stop><stop offset="1"></stop></linearGradient><linearGradient id="svg-1102053888_14916_i" x1="2.5" y1="149" x2="2.5" y2="152" gradientUnits="userSpaceOnUse"><stop></stop><stop offset="1" stop-opacity="0"></stop></linearGradient><linearGradient id="svg-1102053888_14916_j" x1="5" y1="149" x2="1.5" y2="149" gradientUnits="userSpaceOnUse"><stop></stop><stop offset="1" stop-color="#AEAEAE" stop-opacity="0"></stop></linearGradient><linearGradient id="svg-1102053888_14916_k" x1="2.5" y1="174.697" x2="2.5" y2="180" gradientUnits="userSpaceOnUse"><stop stop-opacity="0"></stop><stop offset="1"></stop></linearGradient><linearGradient id="svg-1102053888_14916_p" x1="2.5" y1="209" x2="2.5" y2="213" gradientUnits="userSpaceOnUse"><stop></stop><stop offset="1" stop-opacity="0"></stop></linearGradient><linearGradient id="svg-1102053888_14916_q" x1="5" y1="209" x2="1.5" y2="209" gradientUnits="userSpaceOnUse"><stop></stop><stop offset="1" stop-color="#AEAEAE" stop-opacity="0"></stop></linearGradient><linearGradient id="svg-1102053888_14916_r" x1="2.5" y1="261" x2="2.5" y2="265" gradientUnits="userSpaceOnUse"><stop stop-opacity="0"></stop><stop offset="1"></stop></linearGradient><linearGradient id="svg-1102053888_14916_w" x1="2.5" y1="282" x2="2.5" y2="286" gradientUnits="userSpaceOnUse"><stop></stop><stop offset="1" stop-opacity="0"></stop></linearGradient><linearGradient id="svg-1102053888_14916_x" x1="5" y1="282" x2="1.5" y2="282" gradientUnits="userSpaceOnUse"><stop></stop><stop offset="1" stop-color="#AEAEAE" stop-opacity="0"></stop></linearGradient><linearGradient id="svg-1102053888_14916_y" x1="2.5" y1="334" x2="2.5" y2="338" gradientUnits="userSpaceOnUse"><stop stop-opacity="0"></stop><stop offset="1"></stop></linearGradient><linearGradient id="svg-1102053888_14916_G" x1="299" y1="0" x2="299" y2="4" gradientUnits="userSpaceOnUse"><stop stop-color="#817E73"></stop><stop offset="1" stop-color="#C3BEAC"></stop></linearGradient><linearGradient id="svg-1102053888_14916_H" x1="6" y1="87" x2="6" y2="91" gradientUnits="userSpaceOnUse"><stop stop-color="#817E73"></stop><stop offset="1" stop-color="#C3BEAC"></stop></linearGradient><linearGradient id="svg-1102053888_14916_I" x1="3" y1="701" x2="7" y2="701" gradientUnits="userSpaceOnUse"><stop stop-color="#817E73"></stop><stop offset="1" stop-color="#C3BEAC"></stop></linearGradient><linearGradient id="svg-1102053888_14916_J" x1="68.5" y1="785" x2="68.5" y2="781" gradientUnits="userSpaceOnUse"><stop stop-color="#817E73"></stop><stop offset="1" stop-color="#C3BEAC"></stop></linearGradient><linearGradient id="svg-1102053888_14916_K" x1="380" y1="701" x2="376" y2="701" gradientUnits="userSpaceOnUse"><stop stop-color="#817E73"></stop><stop offset="1" stop-color="#C3BEAC"></stop></linearGradient><filter id="svg-1102053888_14916_e" x="380" y="249" width="3" height="21" filterUnits="userSpaceOnUse" color-interpolation-filters="sRGB"><feFlood flood-opacity="0" result="BackgroundImageFix"></feFlood><feBlend in="SourceGraphic" in2="BackgroundImageFix" result="shape"></feBlend><feGaussianBlur stdDeviation=".5" result="effect1_foregroundBlur_393_78"></feGaussianBlur></filter><filter id="svg-1102053888_14916_f" x="380" y="249" width="3" height="93" filterUnits="userSpaceOnUse" color-interpolation-filters="sRGB"><feFlood flood-opacity="0" result="BackgroundImageFix"></feFlood><feBlend in="SourceGraphic" in2="BackgroundImageFix" result="shape"></feBlend><feGaussianBlur stdDeviation=".5" result="effect1_foregroundBlur_393_78"></feGaussianBlur></filter><filter id="svg-1102053888_14916_g" x="380" y="246" width="5" height="99" filterUnits="userSpaceOnUse" color-interpolation-filters="sRGB"><feFlood flood-opacity="0" result="BackgroundImageFix"></feFlood><feBlend in="SourceGraphic" in2="BackgroundImageFix" result="shape"></feBlend><feGaussianBlur stdDeviation="1" result="effect1_foregroundBlur_393_78"></feGaussianBlur></filter><filter id="svg-1102053888_14916_l" x="0" y="149" width="3" height="8" filterUnits="userSpaceOnUse" color-interpolation-filters="sRGB"><feFlood flood-opacity="0" result="BackgroundImageFix"></feFlood><feBlend in="SourceGraphic" in2="BackgroundImageFix" result="shape"></feBlend><feGaussianBlur stdDeviation=".5" result="effect1_foregroundBlur_393_78"></feGaussianBlur></filter><filter id="svg-1102053888_14916_m" x="0" y="151" width="3" height="28" filterUnits="userSpaceOnUse" color-interpolation-filters="sRGB"><feFlood flood-opacity="0" result="BackgroundImageFix"></feFlood><feBlend in="SourceGraphic" in2="BackgroundImageFix" result="shape"></feBlend><feGaussianBlur stdDeviation=".5" result="effect1_foregroundBlur_393_78"></feGaussianBlur></filter><filter id="svg-1102053888_14916_n" x="-2" y="146" width="5" height="38" filterUnits="userSpaceOnUse" color-interpolation-filters="sRGB"><feFlood flood-opacity="0" result="BackgroundImageFix"></feFlood><feBlend in="SourceGraphic" in2="BackgroundImageFix" result="shape"></feBlend><feGaussianBlur stdDeviation="1" result="effect1_foregroundBlur_393_78"></feGaussianBlur></filter><filter id="svg-1102053888_14916_s" x="0" y="210" width="3" height="13" filterUnits="userSpaceOnUse" color-interpolation-filters="sRGB"><feFlood flood-opacity="0" result="BackgroundImageFix"></feFlood><feBlend in="SourceGraphic" in2="BackgroundImageFix" result="shape"></feBlend><feGaussianBlur stdDeviation=".5" result="effect1_foregroundBlur_393_78"></feGaussianBlur></filter><filter id="svg-1102053888_14916_t" x="0" y="211" width="3" height="54" filterUnits="userSpaceOnUse" color-interpolation-filters="sRGB"><feFlood flood-opacity="0" result="BackgroundImageFix"></feFlood><feBlend in="SourceGraphic" in2="BackgroundImageFix" result="shape"></feBlend><feGaussianBlur stdDeviation=".5" result="effect1_foregroundBlur_393_78"></feGaussianBlur></filter><filter id="svg-1102053888_14916_u" x="-2" y="207" width="5" height="62" filterUnits="userSpaceOnUse" color-interpolation-filters="sRGB"><feFlood flood-opacity="0" result="BackgroundImageFix"></feFlood><feBlend in="SourceGraphic" in2="BackgroundImageFix" result="shape"></feBlend><feGaussianBlur stdDeviation="1" result="effect1_foregroundBlur_393_78"></feGaussianBlur></filter><filter id="svg-1102053888_14916_z" x="0" y="283" width="3" height="13" filterUnits="userSpaceOnUse" color-interpolation-filters="sRGB"><feFlood flood-opacity="0" result="BackgroundImageFix"></feFlood><feBlend in="SourceGraphic" in2="BackgroundImageFix" result="shape"></feBlend><feGaussianBlur stdDeviation=".5" result="effect1_foregroundBlur_393_78"></feGaussianBlur></filter><filter id="svg-1102053888_14916_A" x="0" y="284" width="3" height="54" filterUnits="userSpaceOnUse" color-interpolation-filters="sRGB"><feFlood flood-opacity="0" result="BackgroundImageFix"></feFlood><feBlend in="SourceGraphic" in2="BackgroundImageFix" result="shape"></feBlend><feGaussianBlur stdDeviation=".5" result="effect1_foregroundBlur_393_78"></feGaussianBlur></filter><filter id="svg-1102053888_14916_B" x="-2" y="280" width="5" height="62" filterUnits="userSpaceOnUse" color-interpolation-filters="sRGB"><feFlood flood-opacity="0" result="BackgroundImageFix"></feFlood><feBlend in="SourceGraphic" in2="BackgroundImageFix" result="shape"></feBlend><feGaussianBlur stdDeviation="1" result="effect1_foregroundBlur_393_78"></feGaussianBlur></filter><filter id="svg-1102053888_14916_D" x="-1" y="-4" width="385" height="793" filterUnits="userSpaceOnUse" color-interpolation-filters="sRGB"><feFlood flood-opacity="0" result="BackgroundImageFix"></feFlood><feBlend in="SourceGraphic" in2="BackgroundImageFix" result="shape"></feBlend><feGaussianBlur stdDeviation="2" result="effect1_foregroundBlur_393_78"></feGaussianBlur></filter><filter id="svg-1102053888_14916_E" x="1" y="-2" width="381" height="789" filterUnits="userSpaceOnUse" color-interpolation-filters="sRGB"><feFlood flood-opacity="0" result="BackgroundImageFix"></feFlood><feBlend in="SourceGraphic" in2="BackgroundImageFix" result="shape"></feBlend><feGaussianBlur stdDeviation="1" result="effect1_foregroundBlur_393_78"></feGaussianBlur></filter><filter id="svg-1102053888_14916_F" x="6" y="3" width="372" height="780" filterUnits="userSpaceOnUse" color-interpolation-filters="sRGB"><feFlood flood-opacity="0" result="BackgroundImageFix"></feFlood><feBlend in="SourceGraphic" in2="BackgroundImageFix" result="shape"></feBlend><feGaussianBlur stdDeviation="1" result="effect1_foregroundBlur_393_78"></feGaussianBlur></filter><filter id="svg-1102053888_14916_M" x="0" y="-3" width="383" height="791" filterUnits="userSpaceOnUse" color-interpolation-filters="sRGB"><feFlood flood-opacity="0" result="BackgroundImageFix"></feFlood><feBlend in="SourceGraphic" in2="BackgroundImageFix" result="shape"></feBlend><feGaussianBlur stdDeviation="3.5" result="effect1_foregroundBlur_393_78"></feGaussianBlur></filter><clipPath id="svg-1102053888_14916_a"><path d="M383 346a2 2 0 0 1-2 2h-3v-96h3a2 2 0 0 1 2 2v92Z" fill="#fff"></path></clipPath><clipPath id="svg-1102053888_14916_h"><path d="M0 151a2 2 0 0 1 2-2h3v31H2a2 2 0 0 1-2-2v-27Z" fill="#fff"></path></clipPath><clipPath id="svg-1102053888_14916_o"><path d="M0 211a2 2 0 0 1 2-2h3v56H2a2 2 0 0 1-2-2v-52Z" fill="#fff"></path></clipPath><clipPath id="svg-1102053888_14916_v"><path d="M0 284a2 2 0 0 1 2-2h3v56H2a2 2 0 0 1-2-2v-52Z" fill="#fff"></path></clipPath><clipPath id="svg-1102053888_14916_C"><rect x="3" width="377" height="785" rx="62" fill="#fff"></rect></clipPath><clipPath id="svg-1102053888_14916_L"><rect x="7" y="4" width="369" height="777" rx="58" fill="#fff"></rect></clipPath><clipPath id="svg-1102053888_14916_O"><rect x="15" y="12" width="353" height="761" rx="52" fill="#fff"></rect></clipPath><radialGradient id="svg-1102053888_14916_N" cx="0" cy="0" r="1" gradientUnits="userSpaceOnUse" gradientTransform="scale(352.568 318.289) rotate(90 -.016 .56)"><stop stop-color="#879194"></stop><stop offset="1"></stop></radialGradient></defs></svg>